<svg class="logo" fill="none" viewBox="0 0 378 80" xmlns="http://www.w3.org/2000/svg"><g fill="#000"><path d="m338.41 79.1913c-5.755 0-11.047-.9896-15.877-2.9654s-9.029-4.744-12.601-8.3046c-3.507-3.5571-6.25-7.7453-8.236-12.5538-1.919-4.812-2.88-10.0831-2.88-15.8167 0-5.7337.958-10.9079 2.88-15.72 1.983-4.8121 4.729-8.9967 8.236-12.5538 3.572-3.55704 7.774-6.32525 12.601-8.30459 4.83-1.975753 10.122-2.96542147 15.877-2.96542147s10.948.98966847 15.778 2.96542147c4.83 1.97575 9.029 4.74396 12.6 8.30459 3.571 3.5571 6.318 7.7453 8.237 12.5538 1.982 4.8121 2.976 10.0509 2.976 15.72 0 5.669-.994 11.0047-2.976 15.8167-1.919 4.8121-4.666 8.9967-8.237 12.5538s-7.774 6.3253-12.6 8.3046c-4.83 1.9758-10.087 2.9654-15.778 2.9654zm0-7.3149c4.565 0 8.8-.7925 12.701-2.3738 3.905-1.6459 7.276-3.9228 10.123-6.8201 2.911-2.9654 5.16-6.3934 6.748-10.2804 1.589-3.9551 2.381-8.2365 2.381-12.8513 0-4.6149-.792-8.7636-2.381-12.6542-1.588-3.9551-3.837-7.3831-6.748-10.2804-2.844-2.9654-6.218-5.2388-10.123-6.82009-3.905-1.64586-8.136-2.47059-12.701-2.47059-4.564 0-8.896.82473-12.801 2.47059-3.905 1.58129-7.308 3.85469-10.219 6.82009-2.844 2.9009-5.06 6.3253-6.648 10.2804-1.589 3.887-2.381 8.1074-2.381 12.6542 0 4.5467.792 8.8962 2.381 12.8513 1.588 3.887 3.804 7.315 6.648 10.2804 2.911 2.9009 6.318 5.1742 10.219 6.8201 3.905 1.5813 8.172 2.3738 12.801 2.3738z"/><path d="m242.28 79.1913c-1.083 0-2.03-.3729-2.84-1.1151-.743-.7423-1.116-1.6889-1.116-2.84v-71.27771c0-1.08289.373-1.99368 1.116-2.73593.81-.810381 1.757-1.21557147 2.84-1.21557147 1.082 0 1.993.40519047 2.735 1.21557147.811.74225 1.216 1.65662 1.216 2.73593v67.72781h39.644c1.079 0 1.994.3729 2.736 1.1152.81.6777 1.216 1.5562 1.216 2.6355 0 1.0794-.406 1.9937-1.216 2.736-.742.6777-1.657 1.0147-2.736 1.0147h-43.595z"/><path d="m213.17 71.5824h-47.852c-2.101 0-3.804 1.7033-3.804 3.8045 0 2.1011 1.703 3.8045 3.804 3.8045h47.852c2.102 0 3.805-1.7034 3.805-3.8045 0-2.1012-1.703-3.8045-3.805-3.8045z"/><path d="m191.125 35.5778h-25.807c-2.101 0-3.804 1.7033-3.804 3.8045s1.703 3.8045 3.804 3.8045h25.807c2.101 0 3.805-1.7033 3.805-3.8045s-1.704-3.8045-3.805-3.8045z"/><path d="m213.141.00003052h-47.852c-2.102 0-3.805 1.70332948-3.805 3.80448948s1.703 3.80449 3.805 3.80449h47.852c2.101 0 3.804-1.70333 3.804-3.80449s-1.703-3.80448948-3.804-3.80448948z"/><path d="m108.586 79.1913c-1.689 0-2.908-.8462-3.651-2.5351l-30.1127-70.46378c-.7423-1.89328-.8104-3.38137-.2044-4.46068.6741-1.147445 1.8251-1.72475147 3.4459-1.72475147s2.908.84623947 3.6503 2.53513147l27.9829 66.91748h-2.23l27.883-66.71309c.405-1.01477.911-1.72475 1.52-2.129943.61-.405191 1.42-.60957847 2.435-.60957847 1.556 0 2.603.60957747 3.145 1.82515147.541 1.14744.505 2.467-.101 3.95509l-30.213 70.86897c-.406.9466-.911 1.6208-1.521 2.0295-.609.3371-1.283.5056-2.026.5056z"/><path d="m51.6565 0h-47.85201c-2.10116 0-3.80449 1.70333-3.80449 3.80449s1.70333 3.80449 3.80449 3.80449h47.85201c2.1011 0 3.8044-1.70333 3.8044-3.80449s-1.7033-3.80449-3.8044-3.80449z"/><path d="m29.638 35.5778h-25.80671c-2.10117 0-3.8044956 1.7033-3.8044956 3.8045s1.7033256 3.8045 3.8044956 3.8045h25.80671c2.1012 0 3.8045-1.7033 3.8045-3.8045s-1.7033-3.8045-3.8045-3.8045z"/><path d="m51.6832 71.5824h-47.85191c-2.10117 0-3.8044956 1.7033-3.8044956 3.8045 0 2.1011 1.7033256 3.8045 3.8044956 3.8045h47.85191c2.1012 0 3.8045-1.7034 3.8045-3.8045 0-2.1012-1.7033-3.8045-3.8045-3.8045z"/></g></svg>